<?xml version="1.0" encoding="utf-8"?>
<!-- Generator: Adobe Illustrator 23.0.6, SVG Export Plug-In . SVG Version: 6.00 Build 0)  -->
<svg version="1.1" id="katman_1" xmlns="http://www.w3.org/2000/svg" xmlns:xlink="http://www.w3.org/1999/xlink" x="0px" y="0px"
	 viewBox="0 0 620.2 404.1"  xml:space="preserve">
<style type="text/css">
	.st0{fill:#ED8D26;}
	.st1{fill:#F0B384;}
	.st2{fill:#EEC398;}
	.st3{fill:#E7B57C;}
	.st4{fill:#1B0D0C;}
	.st5{fill:#A2754D;}
	.st6{fill:#EE8B24;}
	.st7{fill:#FDFDFB;}
	.st8{fill:#AB2D22;}
	.st9{fill:#FAFAF8;}
	.st10{fill:#A73120;}
	.st11{fill:#ED8D24;}
	.st12{fill:#AA2D23;}
	.st13{fill:#AA2E23;}
	.st14{fill:#FBF9F8;}
	.st15{fill:#F8F8F2;}
	.st16{fill:#DBCFB8;}
	.st17{fill:#C9873E;}
	.st18{fill:#CD945C;}
	.st19{fill:#E6D3A9;}
	.st20{fill:#BC7738;}
	.st21{fill:#D48F5B;}
	.st22{fill:#1C0D0C;}
	.st23{fill:#1B0D0B;}
	.st24{fill:#4F2010;}
	.st25{fill:#3E1D09;}
	.st26{fill:#3D1A08;}
	.st27{fill:#451F06;}
	.st28{fill:#411607;}
	.st29{fill:#350F05;}
	.st30{fill:#43150C;}
	.st31{fill:#3B170F;}
</style>
<title>pars-logo2</title>
<path class="st0" d="M199.2,197c-18.5-13.9-38-26.6-58.3-37.9c-12.6-7.1-25.7-13.1-38.8-19c-15.1-6.7-30.8-12-46.5-17.2
	c-10.6-3.4-21.4-5.9-31.9-9.3c-5.2-1.6-10.7-2.1-16-3.4c-1.6-0.4-4.1-0.3-4.4-2.6c-0.2-1.8,1.6-2.8,2.8-3.9
	c6.5-5.7,13.4-10.9,20.6-15.7C43.4,77,60.5,66.4,78.9,58.3c14.8-6.6,29.5-13.7,45-18.5c15.8-4.9,31.6-9.7,47.8-13
	c20.5-4.2,41.2-7,62.1-8.2c12.5-0.8,24.9-1.7,37.3-1.1c17.2,0.7,34.6,1.3,51.6,4.1c9.3,1.6,18.7,2.3,27.8,5.2c6.8,2.1,7.8,0.6,6-6.1
	c-1.1-4.3-2.2-8.7-3.1-13.1c-0.7-3.4-0.4-5.9,4.5-6.1c11.8-0.6,22.7,2.6,33.5,6.4c23.1,8.1,42.4,21.8,58.7,39.8
	c5.9,6.5,14.2,7.8,21.5,10.9c24.9,10.5,50,20.5,72.8,35c10,6.4,18.3,15,21.8,27c1,3.4,1.3,6.9,0.7,10.4c-1.2,7.5,2.2,12.7,7.1,17.5
	c14.1,13.7,26.7,28.7,38.9,44c5.8,7.2,7.2,15.2,4.4,23.9c-2.4,8-6.8,15.3-12.6,21.2c-2.5,2.4-4,5.8-4,9.3c-0.4,6.3-2,12.5-4.7,18.3
	c-1.3,1.9-2.8,3.6-4.2,5.4c-3.9,4.7-4.7,4.7-8-0.2c-4.4,2.7-6.8,7.4-10.6,10.6c-15.2,12.8-31.6,19.6-51.7,12.8
	c-12.8-4.3-22.8-12.6-32.1-21.8c-4.5-4.5-8.9-9-13.2-13.6c-2.5-2.8-5.2-3.7-8.8-2.4c-6.1,2.2-12.6,0.8-18.8,1.2
	c-18.2,1.3-35.1-2.2-50.4-12.7c-3.5-2.4-7.2,0.3-10.3,1.7c-28.5,12-52.3,30.5-73.2,53.1c-1.9,2.1-3.8,4.2-5.5,6.4
	c-2.7,3.5-5,3.1-7.5-0.3c-4.3-6.1-8.8-12-13.2-18c-6.6-9.1-14.1-17.6-21.3-26.2c-1.6-2-3.4-4-5.2-5.8
	c-16.6-17.8-33.1-35.7-52.8-50.2C206.3,201.8,202.9,199.1,199.2,197z"/>
<path class="st1" d="M583.9,270.3c3.4,4.7,5.6,2,8-1.2c1.1-1.7,2.5-3.1,4.3-4c-0.5,2.9-2.5,4.8-4.4,6.8
	C586.9,276.8,586.3,276.7,583.9,270.3z"/>
<path class="st2" d="M199.2,197c4.4,1,8,4,9.9,8.1C205.4,202.9,202.1,200.1,199.2,197z"/>
<path class="st3" d="M261.9,255.2c2.4,1.4,4.6,2.9,5.2,5.8C264.8,259.8,262.9,257.7,261.9,255.2z"/>
<path class="st4" d="M368.9,183.1c1.2,20.9,8.8,39.3,22.7,55.5c-30.7,11.2-55.5,30.2-77.4,53.2c-2.1,2.1-4.1,4.4-5.9,6.7
	c-1.9,2.5-3,2.8-5-0.1c-10.5-15.2-22-29.7-34.3-43.5c-38.9-44-84.3-79.7-136.7-106.5c-37-18.9-75.8-32.4-116-42.1
	c-0.9-0.2-2,0.1-2.7-1.1c0.5-1.9,2.3-2.6,3.7-3.7c52.1-38.3,110.3-61.7,173.8-72.7c56.1-9.4,113.6-7.5,169,5.6c4.5,1.1,5.2,0.3,4-4
	c-1.6-5.9-2.7-12-4-18c-1.1-5.5-1-5.6,4.5-5c19,1.8,36.1,8.8,52,19.1c10.1,6.5,19.9,13.6,27.7,22.8c6.5,7.6,15.2,10.3,23.8,13.8
	c23.2,9.6,46.5,19.1,68.2,32c4.5,2.6,8.7,5.6,12.5,9c10.4,9.2,14.9,20.6,12.7,34.4c-0.6,2.4,0.2,5,2.1,6.6
	c13.9,14.6,27.2,29.7,40.7,44.6c13,14.3,9.9,27.1,0.2,38.9c-6,7.3-9.9,14.6-10.5,24c-0.2,4.4-1.7,8.5-4.4,12
	c-1.9-4.7-1.7-9.9-5-14.6c-2,9.9-7,18.9-14.3,25.9c-17.4,17-39.7,19.3-60.1,6.2c-12.2-7.8-21.7-18.6-31.4-29.1
	c-3.1-3.3-5.8-4.3-10.4-3.4c-17.8,3.2-35.7,4.7-52.8-3.8c-20.8-10.4-32.8-28-40.4-49.2c-1.8-5.2-3.1-10.5-4.6-15.8
	c-2.7-2.2-1.1-5.3-2.1-7.9C369.8,176.4,368.6,179.7,368.9,183.1z"/>
<path class="st5" d="M368.9,183.1c-1.3-3.6-0.6-7.3-0.9-12.1c2.3,3.8,2.1,7,2.7,10C369.5,181.1,369.2,182.1,368.9,183.1z"/>
<path class="st6" d="M368.8,113.2l-16.2-2.2c3.6-7.3,2.3-11.1-5-14.4c-1.9-0.9-4-1.5-6-2.3c-3-1.1-6.3-1.1-9.3,0.1
	c-7.7,3.4-8.5,5.9-3.9,13.5c-24.2-2.5-48.2-3-72.2-2.7c-4.8,0.9-9.6,0.1-14.4,0.4c-1.6,0.1-3.3-0.7-4.7,0.7l-19.2,2.1
	c26.9-12.9,55.4-19.5,84.8-23c-22-4.4-44.5-5.7-66.9-7.3c0-0.5-0.2-0.9-0.1-1c2.4-2.3,5.5-4.3,4.1-8.3c-1.5-4.3-5.4-5.2-9.2-5.6
	c-4.1-0.7-8.4-0.2-12.3,1.2c-6.9,2.8-8.3,5.7-6.1,12.9c-3.1,0-6.1,0-9.1,0s-7,1.1-6.4-4.4c0.1-0.6-1.1-1.6-1.9-2.1
	c-5.7-3.7-14.6-1-16.9,5.4c-0.9,2.5-2.6,1.7-4,1.8c-18,0.9-35.9,2.4-53.7,5c-15.3,2.2-30.5,5.2-45.5,9c-1.9,0.5-3.9,0.8-5.8,1.1
	c-0.3-2.3,2-2.3,3-3.5c15.2-6,30.7-11,46.3-15.7c21.7-6.4,43.8-11.5,66.1-15.2c16.7-2.9,33.6-4.7,50.5-6.2
	c22.6-1.9,45.3-1.6,67.8-0.6c29.8,1.4,59.3,5.9,88.1,13.5c5.4,1.4,10.1,4.1,15.4,5.8c3.9,2.4,5,1.1,4.7-3.2
	c-0.7-9.5-4.5-18.1-8.1-26.7c3.1-1,3.9,2.3,5.9,3.2c9.7,8.9,18,19.2,24.8,30.4c1.5,2.6,4,4.5,6.9,5.2c23,6.8,45.6,14.6,67,25.6
	c10.4,5.4,20.4,11.2,28.4,19.9c3.7,4.1,7.1,8.3,7,14.2c-2.1,4.7-8.3,6.1-13.2,2.9c-13.5-8.6-27.4-16.4-42.3-22.4
	c-16-6.6-32.9-10.8-50.2-12.4l8.7,7c14.9,10.4,28.7,22.2,41.5,35.1c9.4,9.5,16.6,20.3,22.7,32.1c2,3.9,2.7,4.1,5.4,0.8
	c3-3.8,6.5-7.1,9.7-10.7c3.3-3.8,4.8-3.9,7.8,0.2c6.4,8.9,12.9,17.8,18.1,27.5c1.5,2.6,3.3,5,4.4,7.8c2.6,6.8,7.7,9.5,14.6,9.7
	c2.3,0.2,4.6,0.5,6.9,0.9c0.9,7.7-4.3,12.3-9.1,16.5c-9.8,8.7-21.9,10.5-34.6,9.2c-5.3-0.4-10.5-1.8-15.3-4
	c-8.7-2-17.5-2.2-26.3-3.1c-1.9-0.2-4,0.3-5.7-0.9c-0.5-0.6-0.6-1.6-0.1-2.2c11.7-1.6,23.3-3.3,35-4.9c3.3-0.5,6.6-0.8,10-2.5
	l-68.8-5.7v-0.5l61.6-5.7l0.1-0.8l-65.6-7.4l-0.1-0.6l40-3.6c-3.4-2.4-7.1-3-10.8-3.3c-4.1-0.3-8.3-0.7-12.4-1c-4-0.3-8-0.7-11.9-1
	c-19.1-2-31-14.1-40.4-29.3c-6.8-11-10.6-23.3-14.1-35.7c-0.9-3.3-1.6-6.8-2.8-10.7c-3,2.4-4.2,5.4-5.9,8.2
	c-0.8,1.3-1.5,2.9-3.3,2.6c-1.5-0.3-1.7-2-2-3.2c-2.2-9.2-3.5-18.7-3.6-28.1c0-1.7,1.5-4.1-1.7-4.6c-3.8,3.8-6.2,8.6-9.1,13
	C377.3,113.3,373.7,114.8,368.8,113.2z"/>
<path class="st7" d="M406.4,71.3c-6.2,0.2-11.4-3.3-17.3-4.8c-22.4-5.5-45.2-9.4-68.2-11.7c-22.9-2.3-45.9-2.2-68.9-1.7
	c-19,0.4-37.8,2.6-56.6,5.4c-25.6,3.8-50.9,9.4-75.8,16.6c-16.1,4.6-31.9,10.1-47.5,15.9c-1.5,0.4-3.1,1.5-4-0.8
	c35-19.4,72.8-33.3,112-41.2c31.3-6.6,63.3-9.2,95.2-7.7c41.1,2.1,81.6,8.3,120.1,23.8C399.4,66.6,403.1,68.7,406.4,71.3z"/>
<path class="st8" d="M389.1,96.1c0.2-0.9,0.8-1.7,1.6-1.7c1.2,0,0.8,1,0.9,1.8c0.5,8.1,1.2,16.2,2.3,24.2c0.5,3.8,1.9,7.2,2.5,11.8
	c3.4-5.3,5.5-10.2,9.9-14.2c2.3,8.5,4,16.6,6.7,24.6c3.9,11.7,8.7,23,16.3,32.8c8.7,11.1,20.1,18.1,33.7,21.4
	c-25.7,1.4-44.3-11-52.7-35.2c-1.6-4.7-3.4-9.2-5.6-15c-2.7,6.3-1.6,11.8-0.6,18.4c-7.7-8.7-11.6-18-14-27.9
	c-2.9-12.3-3-25.1-0.4-37.5C390,98.5,390.6,97.1,389.1,96.1z"/>
<path class="st9" d="M543,140c-5.2-15.9-18.7-23.5-32-30.8c-22.6-12.5-46.8-20.7-71.5-27.9c-2.8-0.8-4.8-2-6.2-4.5
	c-6.7-12-15.8-22-25.4-31.6c-0.5-1.1-0.7-2.1,1-2.2c11.1,6.6,20.3,15.6,28.8,25.2c2.4,2.7,5.5,4.8,8.9,6c25.9,10,51.6,20.5,76,33.8
	c3.6,2,7.1,4.4,10.5,6.7C542.3,120.8,546.2,129,543,140z"/>
<path class="st10" d="M551.2,200c-5.2-5.8-9.2-12.5-13.5-19c-7.8-11.9-7.6-12.1-17.2-1.7c-2,2.2-4,4.5-5.9,6.7c-1.7,2-3,2.3-4.2-0.6
	c-11-25.1-31-42.4-51.3-59.5c-4.3-3.6-9.1-6.6-12.9-10.9c4.9,1.4,8.5,4.9,12.5,7.8c18,13.2,35.7,26.6,48.3,45.5
	c1.8,2.8,3.5,5.6,5.1,8.5c1.5,2.6,3,2.7,5.1,0.7c3.3-3.3,6.7-6.4,10-9.7c1.6-1.6,3-2.7,4.9-0.5C540.1,177.2,546.9,187.9,551.2,200z"
	/>
<path class="st11" d="M584.7,202.4c-0.1,0.1-0.3,0.2-0.4,0.3c-14.1,3.3-14.1,3.3-21.8-8.9c-4.6-7.5-9.2-14.9-13.7-22.5
	c-2.4-4.1-4-8.4-1.7-13.2c1.8-0.3,2.7,1,3.7,2.1c11.1,13,21.6,26.6,32.6,39.6C584.2,200.4,584.6,201.4,584.7,202.4z"/>
<path class="st12" d="M500.5,250.7c18.7,11.9,38.1,15.4,59.3,6.4c-8.5,17.5-21.6,19.9-37.5,13.2
	C513.2,266.5,506.7,258.7,500.5,250.7z"/>
<path class="st13" d="M518.1,240.2c8.2,1.4,16.2,3.5,24.6,2.9c13.3-1,24.5-5.8,31.6-17.8c1.3-2.1,2.7-4.3,2.7-6.9
	c3.2,9.6-2.9,22.7-12.4,26.7c-10.1,4.5-21.5,5-31.9,1.4C527.7,244.8,522.2,244.1,518.1,240.2z"/>
<path class="st17" d="M368.8,113.2c4.8,1.6,7.4-2.7,11.2-4.1C377.5,116,377.5,116,368.8,113.2z"/>
<path class="st18" d="M237.3,106.3c3-2.5,6.5-0.8,9.8-1.1c3.1-0.3,6.2,0,9.3,0C250.1,106.6,243.7,106,237.3,106.3z"/>
<path class="st19" d="M409,43l-1,2.2c-1.9-1-2.7-3.3-5-3.8c-0.3-0.5-0.9-1.1-1-1.6c-0.1-1,0.8-0.9,1.3-0.6
	C405.3,40.4,407.6,41.1,409,43z"/>
<path class="st20" d="M486,234l0.1,2.2c-2.2,0-4.5,0.4-7.1-1C481.3,233.4,483.7,234,486,234z"/>
<path class="st21" d="M332.4,94.3c3-2.5,6.4-1,9.6-0.8c0,0.1,0,0.3,0,0.4c-0.1,0.1-0.2,0.3-0.4,0.3L332.4,94.3z"/>
<path class="st22" d="M359.6,73c6.8,0.4,12.8,1.9,17.7,6.3c2.3,2,4.2,4.5,3.2,7.8s-3.7,5.1-6.9,5.8c-7.3,1.9-15.1,0.6-21.4-3.5
	c-3.3-2.1-6.2-4.7-5.6-9.2c0.7-4.7,4.7-5.6,8.3-6.6C356.5,73.3,358.1,73.1,359.6,73z"/>
<path class="st23" d="M322.5,70.7c5.8,0,10.3,1.1,13.9,4.4c4,3.7,3.2,8.3-2,10c-6.2,2.2-13.1,1.3-18.5-2.4c-2.3-1.6-4.2-3.6-3.6-6.6
	c0.6-3.2,3.3-4.4,6.2-5C319.8,70.9,321.1,70.7,322.5,70.7z"/>
<g>
	<path class="st4" d="M167.5,356h-5v-25.2h10.1c0.9,0,1.8,0.1,2.7,0.4s1.7,0.6,2.4,1s1.4,1,2,1.6s1.1,1.3,1.6,2s0.8,1.6,1,2.4
		s0.4,1.7,0.4,2.7c0,1.4-0.3,2.7-0.8,3.9s-1.2,2.3-2.2,3.2s-2,1.6-3.2,2.2s-2.5,0.8-3.9,0.8h-5V356z M167.5,335.8v10.1h5
		c0.7,0,1.3-0.1,2-0.4s1.1-0.6,1.6-1.1s0.8-1,1.1-1.6s0.4-1.3,0.4-2s-0.1-1.3-0.4-2s-0.6-1.2-1.1-1.6s-1-0.8-1.6-1.1s-1.3-0.4-2-0.4
		H167.5z"/>
	<path class="st4" d="M205.5,356h-5v-5h-10.1v5h-5v-15.1c0-1.4,0.3-2.7,0.8-3.9s1.2-2.3,2.2-3.2s2-1.6,3.2-2.2s2.5-0.8,3.9-0.8
		s2.7,0.3,3.9,0.8s2.3,1.2,3.2,2.2s1.6,2,2.2,3.2s0.8,2.5,0.8,3.9V356z M200.5,345.9v-5c0-0.7-0.1-1.3-0.4-2s-0.6-1.2-1.1-1.6
		s-1-0.8-1.6-1.1s-1.3-0.4-2-0.4s-1.3,0.1-2,0.4s-1.2,0.6-1.6,1.1s-0.8,1-1.1,1.6s-0.4,1.3-0.4,2v5H200.5z"/>
	<path class="st4" d="M214.9,356h-5v-25.2H220c0.9,0,1.8,0.1,2.7,0.4s1.7,0.6,2.4,1s1.4,1,2,1.6s1.1,1.3,1.6,2s0.8,1.6,1,2.4
		s0.4,1.7,0.4,2.7c0,0.9-0.1,1.7-0.3,2.5s-0.5,1.6-0.9,2.3s-0.9,1.4-1.5,2s-1.2,1.2-2,1.6l2.8,6.6h-5.4l-2.2-5.1l-5.6,0V356z
		 M214.9,335.8v10.1h5c0.7,0,1.3-0.1,2-0.4s1.1-0.6,1.6-1.1s0.8-1,1.1-1.6s0.4-1.3,0.4-2s-0.1-1.3-0.4-2s-0.6-1.2-1.1-1.6
		s-1-0.8-1.6-1.1s-1.3-0.4-2-0.4H214.9z"/>
	<path class="st4" d="M231.9,338.4c0-1,0.2-2,0.6-2.9s0.9-1.7,1.6-2.4s1.5-1.2,2.4-1.6s1.9-0.6,2.9-0.6H251v5h-11.6
		c-0.4,0-0.7,0.1-1,0.2s-0.6,0.3-0.8,0.5s-0.4,0.5-0.5,0.8s-0.2,0.6-0.2,1s0.1,0.7,0.2,1s0.3,0.6,0.5,0.8s0.5,0.4,0.8,0.5
		s0.6,0.2,1,0.2h5c1,0,2,0.2,2.9,0.6s1.7,0.9,2.4,1.6s1.2,1.5,1.6,2.4s0.6,1.9,0.6,2.9s-0.2,2-0.6,2.9s-0.9,1.7-1.6,2.4
		s-1.5,1.2-2.4,1.6s-1.9,0.6-2.9,0.6h-11.2v-5h11.2c0.4,0,0.7-0.1,1-0.2s0.6-0.3,0.8-0.5s0.4-0.5,0.5-0.8s0.2-0.6,0.2-1
		s-0.1-0.7-0.2-1s-0.3-0.6-0.5-0.8s-0.5-0.4-0.8-0.5s-0.6-0.2-1-0.2h-5c-1,0-2-0.2-2.9-0.6s-1.7-0.9-2.4-1.6s-1.2-1.5-1.6-2.4
		S231.9,339.4,231.9,338.4z"/>
	<path class="st6" d="M270.5,356h-5v-25.2h10.1c0.9,0,1.8,0.1,2.7,0.4s1.7,0.6,2.4,1s1.4,1,2,1.6s1.1,1.3,1.6,2s0.8,1.6,1,2.4
		s0.4,1.7,0.4,2.7c0,1.4-0.3,2.7-0.8,3.9s-1.2,2.3-2.2,3.2s-2,1.6-3.2,2.2s-2.5,0.8-3.9,0.8h-5V356z M270.5,335.8v10.1h5
		c0.7,0,1.3-0.1,2-0.4s1.1-0.6,1.6-1.1s0.8-1,1.1-1.6s0.4-1.3,0.4-2s-0.1-1.3-0.4-2s-0.6-1.2-1.1-1.6s-1-0.8-1.6-1.1s-1.3-0.4-2-0.4
		H270.5z"/>
	<path class="st6" d="M293.6,356h-5v-25.2h10.1c0.9,0,1.8,0.1,2.7,0.4s1.7,0.6,2.4,1s1.4,1,2,1.6s1.1,1.3,1.6,2s0.8,1.6,1,2.4
		s0.4,1.7,0.4,2.7c0,0.9-0.1,1.7-0.3,2.5s-0.5,1.6-0.9,2.3s-0.9,1.4-1.5,2s-1.2,1.2-2,1.6l2.8,6.6h-5.4l-2.2-5.1l-5.6,0V356z
		 M293.6,335.8v10.1h5c0.7,0,1.3-0.1,2-0.4s1.1-0.6,1.6-1.1s0.8-1,1.1-1.6s0.4-1.3,0.4-2s-0.1-1.3-0.4-2s-0.6-1.2-1.1-1.6
		s-1-0.8-1.6-1.1s-1.3-0.4-2-0.4H293.6z"/>
	<path class="st6" d="M329.3,356H312v-25.2h17.3v5H317v5h8.3v5H317v5h12.2V356z"/>
	<path class="st6" d="M337.8,356h-5v-25.2h17.6v5h-12.6v5h7.6v5h-7.6V356z"/>
	<path class="st6" d="M372.4,356h-5v-5h-10.1v5h-5v-15.1c0-1.4,0.3-2.7,0.8-3.9s1.2-2.3,2.2-3.2s2-1.6,3.2-2.2s2.5-0.8,3.9-0.8
		s2.7,0.3,3.9,0.8s2.3,1.2,3.2,2.2s1.6,2,2.2,3.2s0.8,2.5,0.8,3.9V356z M367.3,345.9v-5c0-0.7-0.1-1.3-0.4-2s-0.6-1.2-1.1-1.6
		s-1-0.8-1.6-1.1s-1.3-0.4-2-0.4s-1.3,0.1-2,0.4s-1.2,0.6-1.6,1.1s-0.8,1-1.1,1.6s-0.4,1.3-0.4,2v5H367.3z"/>
	<path class="st6" d="M396.9,348.5c0,1-0.2,2-0.6,2.9s-0.9,1.7-1.6,2.4s-1.5,1.2-2.4,1.6s-1.9,0.6-2.9,0.6h-12.6v-25.2h12.6
		c1,0,2,0.2,2.9,0.6s1.7,0.9,2.4,1.6s1.2,1.5,1.6,2.4s0.6,1.9,0.6,2.9c0,0.5-0.1,0.9-0.2,1.4s-0.3,1-0.5,1.4s-0.5,0.9-0.8,1.2
		s-0.7,0.7-1.1,0.9c0.4,0.2,0.8,0.5,1.1,0.9s0.6,0.8,0.8,1.3s0.4,0.9,0.5,1.4S396.9,348,396.9,348.5z M381.8,340.9h7.6
		c0.4,0,0.7-0.1,1-0.2s0.6-0.3,0.8-0.5s0.4-0.5,0.5-0.8s0.2-0.6,0.2-1s-0.1-0.7-0.2-1s-0.3-0.6-0.5-0.8s-0.5-0.4-0.8-0.5
		s-0.6-0.2-1-0.2h-7.6V340.9z M381.8,351h7.6c0.4,0,0.7-0.1,1-0.2s0.6-0.3,0.8-0.5s0.4-0.5,0.5-0.8s0.2-0.6,0.2-1s-0.1-0.7-0.2-1
		s-0.3-0.6-0.5-0.8s-0.5-0.4-0.8-0.5s-0.6-0.2-1-0.2h-7.6V351z"/>
	<path class="st6" d="M405.8,356h-5v-25.2h10.1c0.9,0,1.8,0.1,2.7,0.4s1.7,0.6,2.4,1s1.4,1,2,1.6s1.1,1.3,1.6,2s0.8,1.6,1,2.4
		s0.4,1.7,0.4,2.7c0,0.9-0.1,1.7-0.3,2.5s-0.5,1.6-0.9,2.3s-0.9,1.4-1.5,2s-1.2,1.2-2,1.6l2.8,6.6h-5.4l-2.2-5.1l-5.6,0V356z
		 M405.8,335.8v10.1h5c0.7,0,1.3-0.1,2-0.4s1.1-0.6,1.6-1.1s0.8-1,1.1-1.6s0.4-1.3,0.4-2s-0.1-1.3-0.4-2s-0.6-1.2-1.1-1.6
		s-1-0.8-1.6-1.1s-1.3-0.4-2-0.4H405.8z"/>
	<path class="st6" d="M429.2,356h-5v-25.2h5V356z"/>
	<path class="st6" d="M439,356h-5v-25.2h5v12.6l9.4-12.6h5.7l-8,10.6l8,14.6h-5.7l-5.5-10.2L439,351V356z"/>
	<path class="st6" d="M297.1,381.2h-2.9v-4.6c-0.6-0.2-1.2-0.4-1.8-0.8c-0.5-0.4-1-0.8-1.4-1.3c-0.4-0.5-0.7-1.1-0.9-1.7
		c-0.2-0.6-0.3-1.3-0.3-1.9v-4.4h2.9v4.4c0,0.4,0.1,0.8,0.2,1.1c0.2,0.4,0.4,0.7,0.6,0.9c0.3,0.3,0.6,0.5,0.9,0.6
		c0.4,0.2,0.7,0.2,1.1,0.2s0.8-0.1,1.1-0.2c0.4-0.2,0.7-0.4,0.9-0.6c0.3-0.3,0.5-0.6,0.6-0.9c0.2-0.4,0.2-0.7,0.2-1.1v-4.4h2.9v4.4
		c0,0.7-0.1,1.3-0.3,1.9c-0.2,0.6-0.5,1.2-0.9,1.7c-0.4,0.5-0.9,0.9-1.4,1.3s-1.1,0.6-1.8,0.8V381.2z"/>
	<path class="st6" d="M314.9,381.2h-2.9v-2.9h-5.9v2.9h-2.9v-8.8c0-0.8,0.2-1.6,0.5-2.3c0.3-0.7,0.7-1.3,1.3-1.9s1.2-1,1.9-1.3
		c0.7-0.3,1.5-0.5,2.3-0.5s1.6,0.2,2.3,0.5c0.7,0.3,1.3,0.7,1.9,1.3s1,1.2,1.3,1.9c0.3,0.7,0.5,1.5,0.5,2.3V381.2z M311.9,375.3
		v-2.9c0-0.4-0.1-0.8-0.2-1.1c-0.2-0.4-0.4-0.7-0.6-0.9c-0.3-0.3-0.6-0.5-0.9-0.6c-0.4-0.2-0.7-0.2-1.1-0.2s-0.8,0.1-1.1,0.2
		c-0.4,0.2-0.7,0.4-0.9,0.6c-0.3,0.3-0.5,0.6-0.6,0.9c-0.2,0.4-0.2,0.7-0.2,1.1v2.9H311.9z"/>
	<path class="st6" d="M320.4,381.2h-2.9v-14.7h5.9c0.5,0,1.1,0.1,1.6,0.2c0.5,0.1,1,0.3,1.4,0.6c0.4,0.3,0.8,0.6,1.2,0.9
		c0.4,0.4,0.7,0.8,0.9,1.2c0.3,0.4,0.5,0.9,0.6,1.4c0.1,0.5,0.2,1,0.2,1.6c0,0.8-0.2,1.6-0.5,2.3c-0.3,0.7-0.7,1.3-1.3,1.9
		s-1.2,1-1.9,1.3c-0.7,0.3-1.5,0.5-2.3,0.5h-2.9V381.2z M320.4,369.4v5.9h2.9c0.4,0,0.8-0.1,1.1-0.2c0.4-0.2,0.7-0.4,0.9-0.6
		c0.3-0.3,0.5-0.6,0.6-0.9c0.2-0.4,0.2-0.7,0.2-1.1s-0.1-0.8-0.2-1.1c-0.2-0.4-0.4-0.7-0.6-0.9c-0.3-0.3-0.6-0.5-0.9-0.6
		c-0.4-0.2-0.7-0.2-1.1-0.2H320.4z"/>
	<path class="st6" d="M333.9,381.2h-2.9v-14.7h2.9V381.2z"/>
</g>
</svg>
